<?xml version="1.0" encoding="utf-8"?>
<!-- Generator: Adobe Illustrator 16.0.0, SVG Export Plug-In . SVG Version: 6.00 Build 0)  -->
<!DOCTYPE svg PUBLIC "-//W3C//DTD SVG 1.1//EN" "http://www.w3.org/Graphics/SVG/1.1/DTD/svg11.dtd">
<svg version="1.1" id="圖層_1" xmlns="http://www.w3.org/2000/svg" xmlns:xlink="http://www.w3.org/1999/xlink" x="0px" y="0px"
	 width="16px" height="16px" viewBox="0 0 16 16" enable-background="new 0 0 16 16" xml:space="preserve">
<g>
	<path d="M23.357,4.019c0.187-0.817,0.913-1.396,1.752-1.396h10.781c0.839,0,1.565,0.581,1.752,1.397L30.5,8.386L23.357,4.019z
		 M23.313,5.045v6.383l5.213-3.197L23.313,5.045z M29.387,8.76l-5.902,3.617c0.297,0.627,0.93,1.027,1.625,1.027h10.781
		c0.695,0,1.326-0.4,1.625-1.029l-5.902-3.617L30.5,9.438L29.387,8.76L29.387,8.76z M32.475,8.232l5.213,3.195V5.045L32.475,8.232
		L32.475,8.232z"/>
</g>
<g>
	
		<rect x="1.332" y="2.95" fill="none" stroke="#000000" stroke-width="0.75" stroke-linejoin="round" stroke-miterlimit="10" width="13.336" height="10.101"/>
	
		<polyline fill="none" stroke="#000000" stroke-width="0.75" stroke-linecap="round" stroke-linejoin="round" stroke-miterlimit="10" points="
		1.332,2.95 7.947,8.491 14.486,3.155 	"/>
</g>
</svg>
