<?xml version="1.0" encoding="utf-8"?>
<!-- Generator: Adobe Illustrator 16.0.0, SVG Export Plug-In . SVG Version: 6.00 Build 0)  -->
<!DOCTYPE svg PUBLIC "-//W3C//DTD SVG 1.1//EN" "http://www.w3.org/Graphics/SVG/1.1/DTD/svg11.dtd">
<svg version="1.1" id="圖層_1" xmlns="http://www.w3.org/2000/svg" xmlns:xlink="http://www.w3.org/1999/xlink" x="0px" y="0px"
	 width="16px" height="16px" viewBox="0 0 16 16" enable-background="new 0 0 16 16" xml:space="preserve">
<path d="M8.051,2.189H8.14c0.822,0.003,4.987,0.033,6.11,0.335c0.691,0.188,1.23,0.729,1.415,1.42
	c0.101,0.38,0.172,0.883,0.22,1.402l0.01,0.104l0.022,0.261l0.008,0.104c0.065,0.914,0.073,1.771,0.074,1.957v0.075
	c-0.001,0.194-0.01,1.107-0.082,2.06l-0.008,0.105L15.9,10.115c-0.051,0.572-0.124,1.14-0.235,1.558
	c-0.185,0.692-0.724,1.233-1.415,1.42c-1.16,0.313-5.569,0.334-6.18,0.336H7.928c-0.309,0-1.587-0.006-2.927-0.053l-0.17-0.006
	l-0.087-0.004l-0.171-0.007l-0.171-0.007c-1.11-0.049-2.167-0.128-2.654-0.26c-0.691-0.188-1.23-0.729-1.415-1.42
	c-0.111-0.416-0.185-0.985-0.235-1.558L0.09,10.011L0.082,9.906C0.033,9.229,0.005,8.55,0,7.871V7.748
	C0.002,7.532,0.01,6.79,0.064,5.97l0.007-0.104l0.003-0.052l0.008-0.104L0.104,5.45l0.01-0.104c0.048-0.52,0.119-1.023,0.22-1.402
	c0.185-0.691,0.724-1.232,1.415-1.42c0.487-0.13,1.544-0.21,2.654-0.26l0.17-0.007l0.172-0.006l0.086-0.003l0.171-0.008
	c0.952-0.03,1.904-0.047,2.856-0.051L8.051,2.189L8.051,2.189z M6.4,5.399v4.818l4.157-2.408L6.4,5.399z"/>
</svg>
